%TF.GenerationSoftware,KiCad,Pcbnew,7.0.9*%
%TF.CreationDate,2023-11-29T15:21:19-05:00*%
%TF.ProjectId,Foodinator,466f6f64-696e-4617-946f-722e6b696361,rev?*%
%TF.SameCoordinates,Original*%
%TF.FileFunction,Soldermask,Top*%
%TF.FilePolarity,Negative*%
%FSLAX46Y46*%
G04 Gerber Fmt 4.6, Leading zero omitted, Abs format (unit mm)*
G04 Created by KiCad (PCBNEW 7.0.9) date 2023-11-29 15:21:19*
%MOMM*%
%LPD*%
G01*
G04 APERTURE LIST*
G04 Aperture macros list*
%AMRoundRect*
0 Rectangle with rounded corners*
0 $1 Rounding radius*
0 $2 $3 $4 $5 $6 $7 $8 $9 X,Y pos of 4 corners*
0 Add a 4 corners polygon primitive as box body*
4,1,4,$2,$3,$4,$5,$6,$7,$8,$9,$2,$3,0*
0 Add four circle primitives for the rounded corners*
1,1,$1+$1,$2,$3*
1,1,$1+$1,$4,$5*
1,1,$1+$1,$6,$7*
1,1,$1+$1,$8,$9*
0 Add four rect primitives between the rounded corners*
20,1,$1+$1,$2,$3,$4,$5,0*
20,1,$1+$1,$4,$5,$6,$7,0*
20,1,$1+$1,$6,$7,$8,$9,0*
20,1,$1+$1,$8,$9,$2,$3,0*%
G04 Aperture macros list end*
%ADD10R,2.000000X2.000000*%
%ADD11C,2.000000*%
%ADD12C,3.000000*%
%ADD13C,1.320800*%
%ADD14C,1.734000*%
%ADD15RoundRect,0.102000X0.565000X0.565000X-0.565000X0.565000X-0.565000X-0.565000X0.565000X-0.565000X0*%
%ADD16C,1.334000*%
G04 APERTURE END LIST*
D10*
%TO.C,U1*%
X99755000Y-89745000D03*
D11*
X99755000Y-92285000D03*
X99755000Y-94825000D03*
X99755000Y-97365000D03*
X99755000Y-99905000D03*
X99755000Y-102445000D03*
X99755000Y-104985000D03*
X99755000Y-107525000D03*
X99755000Y-110065000D03*
X99755000Y-112605000D03*
X99755000Y-115145000D03*
X99755000Y-117685000D03*
X99755000Y-120225000D03*
X99755000Y-122765000D03*
X99755000Y-125305000D03*
X125155000Y-125305000D03*
X125155000Y-122765000D03*
X125155000Y-120225000D03*
X125155000Y-117685000D03*
X125155000Y-115145000D03*
X125155000Y-112605000D03*
X125155000Y-110065000D03*
X125155000Y-107525000D03*
X125155000Y-104985000D03*
X125155000Y-102445000D03*
X125155000Y-99905000D03*
X125155000Y-97365000D03*
X125155000Y-94825000D03*
X125155000Y-92285000D03*
X125155000Y-89745000D03*
D12*
X100175000Y-81785000D03*
X100175000Y-128735000D03*
X124685000Y-81785000D03*
X124685000Y-128735000D03*
%TD*%
D13*
%TO.C,JP2*%
X93980000Y-78740000D03*
X93980000Y-76738480D03*
X93980000Y-74742040D03*
X93980000Y-72740520D03*
X93980000Y-70741540D03*
%TD*%
D14*
%TO.C,U3*%
X95485000Y-87630000D03*
X95485000Y-90170000D03*
X95485000Y-92710000D03*
X95485000Y-95250000D03*
%TD*%
D15*
%TO.C,U2*%
X107000000Y-76200000D03*
D16*
X107000000Y-73660000D03*
X107000000Y-71120000D03*
X107000000Y-68580000D03*
X107000000Y-66040000D03*
X107000000Y-63500000D03*
X107000000Y-60960000D03*
X107000000Y-58420000D03*
X99060000Y-58420000D03*
X99060000Y-60960000D03*
X99060000Y-63500000D03*
X99060000Y-66040000D03*
X99060000Y-68580000D03*
X99060000Y-71120000D03*
X99060000Y-73660000D03*
X99060000Y-76200000D03*
%TD*%
M02*
