M48
; DRILL file {KiCad 7.0.9} date Wed Nov 29 15:21:26 2023
; FORMAT={-:-/ absolute / inch / decimal}
; #@! TF.CreationDate,2023-11-29T15:21:26-05:00
; #@! TF.GenerationSoftware,Kicad,Pcbnew,7.0.9
; #@! TF.FileFunction,Plated,1,2,PTH
FMAT,2
INCH
; #@! TA.AperFunction,Plated,PTH,ComponentDrill
T1C0.0307
; #@! TA.AperFunction,Plated,PTH,ComponentDrill
T2C0.0320
; #@! TA.AperFunction,Plated,PTH,ComponentDrill
T3C0.0402
%
G90
G05
T1
X3.9Y-2.3
X3.9Y-2.4
X3.9Y-2.5
X3.9Y-2.6
X3.9Y-2.7
X3.9Y-2.8
X3.9Y-2.9
X3.9Y-3.0
X4.2126Y-2.3
X4.2126Y-2.4
X4.2126Y-2.5
X4.2126Y-2.6
X4.2126Y-2.7
X4.2126Y-2.8
X4.2126Y-2.9
X4.2126Y-3.0
T2
X3.7Y-2.7851
X3.7Y-2.8638
X3.7Y-2.9426
X3.7Y-3.0212
X3.7Y-3.1
T3
X3.7593Y-3.45
X3.7593Y-3.55
X3.7593Y-3.65
X3.7593Y-3.75
X3.9274Y-3.5333
X3.9274Y-3.6333
X3.9274Y-3.7333
X3.9274Y-3.8333
X3.9274Y-3.9333
X3.9274Y-4.0333
X3.9274Y-4.1333
X3.9274Y-4.2333
X3.9274Y-4.3333
X3.9274Y-4.4333
X3.9274Y-4.5333
X3.9274Y-4.6333
X3.9274Y-4.7333
X3.9274Y-4.8333
X3.9274Y-4.9333
X4.9274Y-3.5333
X4.9274Y-3.6333
X4.9274Y-3.7333
X4.9274Y-3.8333
X4.9274Y-3.9333
X4.9274Y-4.0333
X4.9274Y-4.1333
X4.9274Y-4.2333
X4.9274Y-4.3333
X4.9274Y-4.4333
X4.9274Y-4.5333
X4.9274Y-4.6333
X4.9274Y-4.7333
X4.9274Y-4.8333
X4.9274Y-4.9333
T0
M30
