%TF.GenerationSoftware,KiCad,Pcbnew,7.0.9*%
%TF.CreationDate,2023-11-29T15:21:19-05:00*%
%TF.ProjectId,Foodinator,466f6f64-696e-4617-946f-722e6b696361,rev?*%
%TF.SameCoordinates,Original*%
%TF.FileFunction,Copper,L1,Top*%
%TF.FilePolarity,Positive*%
%FSLAX46Y46*%
G04 Gerber Fmt 4.6, Leading zero omitted, Abs format (unit mm)*
G04 Created by KiCad (PCBNEW 7.0.9) date 2023-11-29 15:21:19*
%MOMM*%
%LPD*%
G01*
G04 APERTURE LIST*
%TA.AperFunction,ComponentPad*%
%ADD10R,2.000000X2.000000*%
%TD*%
%TA.AperFunction,ComponentPad*%
%ADD11C,2.000000*%
%TD*%
%TA.AperFunction,ComponentPad*%
%ADD12C,1.320800*%
%TD*%
%TA.AperFunction,ComponentPad*%
%ADD13C,1.530000*%
%TD*%
%TA.AperFunction,ComponentPad*%
%ADD14R,1.130000X1.130000*%
%TD*%
%TA.AperFunction,ComponentPad*%
%ADD15C,1.130000*%
%TD*%
G04 APERTURE END LIST*
D10*
%TO.P,U1,1,3V3*%
%TO.N,Net-(U1-3V3)*%
X99755000Y-89745000D03*
D11*
%TO.P,U1,2,GND*%
%TO.N,Net-(U2-GND)*%
X99755000Y-92285000D03*
%TO.P,U1,3,D15*%
%TO.N,unconnected-(U1-D15-Pad3)*%
X99755000Y-94825000D03*
%TO.P,U1,4,D2*%
%TO.N,unconnected-(U1-D2-Pad4)*%
X99755000Y-97365000D03*
%TO.P,U1,5,D4*%
%TO.N,unconnected-(U1-D4-Pad5)*%
X99755000Y-99905000D03*
%TO.P,U1,6,RX2*%
%TO.N,unconnected-(U1-RX2-Pad6)*%
X99755000Y-102445000D03*
%TO.P,U1,7,TX2*%
%TO.N,unconnected-(U1-TX2-Pad7)*%
X99755000Y-104985000D03*
%TO.P,U1,8,D5*%
%TO.N,Net-(U1-D5)*%
X99755000Y-107525000D03*
%TO.P,U1,9,D18*%
%TO.N,Net-(U1-D18)*%
X99755000Y-110065000D03*
%TO.P,U1,10,D19*%
%TO.N,unconnected-(U1-D19-Pad10)*%
X99755000Y-112605000D03*
%TO.P,U1,11,D21*%
%TO.N,unconnected-(U1-D21-Pad11)*%
X99755000Y-115145000D03*
%TO.P,U1,12,RX0*%
%TO.N,unconnected-(U1-RX0-Pad12)*%
X99755000Y-117685000D03*
%TO.P,U1,13,TX0*%
%TO.N,unconnected-(U1-TX0-Pad13)*%
X99755000Y-120225000D03*
%TO.P,U1,14,D22*%
%TO.N,unconnected-(U1-D22-Pad14)*%
X99755000Y-122765000D03*
%TO.P,U1,15,D23*%
%TO.N,unconnected-(U1-D23-Pad15)*%
X99755000Y-125305000D03*
%TO.P,U1,16,EN*%
%TO.N,unconnected-(U1-EN-Pad16)*%
X125155000Y-125305000D03*
%TO.P,U1,17,VP*%
%TO.N,unconnected-(U1-VP-Pad17)*%
X125155000Y-122765000D03*
%TO.P,U1,18,VN*%
%TO.N,unconnected-(U1-VN-Pad18)*%
X125155000Y-120225000D03*
%TO.P,U1,19,D34*%
%TO.N,unconnected-(U1-D34-Pad19)*%
X125155000Y-117685000D03*
%TO.P,U1,20,D35*%
%TO.N,unconnected-(U1-D35-Pad20)*%
X125155000Y-115145000D03*
%TO.P,U1,21,D32*%
%TO.N,unconnected-(U1-D32-Pad21)*%
X125155000Y-112605000D03*
%TO.P,U1,22,D33*%
%TO.N,unconnected-(U1-D33-Pad22)*%
X125155000Y-110065000D03*
%TO.P,U1,23,D25*%
%TO.N,unconnected-(U1-D25-Pad23)*%
X125155000Y-107525000D03*
%TO.P,U1,24,D26*%
%TO.N,unconnected-(U1-D26-Pad24)*%
X125155000Y-104985000D03*
%TO.P,U1,25,D27*%
%TO.N,Net-(U1-D27)*%
X125155000Y-102445000D03*
%TO.P,U1,26,D14*%
%TO.N,Net-(U1-D14)*%
X125155000Y-99905000D03*
%TO.P,U1,27,D12*%
%TO.N,Net-(U1-D12)*%
X125155000Y-97365000D03*
%TO.P,U1,28,D13*%
%TO.N,Net-(U1-D13)*%
X125155000Y-94825000D03*
%TO.P,U1,29,GND*%
%TO.N,Net-(U2-GND)*%
X125155000Y-92285000D03*
%TO.P,U1,30,VIN*%
%TO.N,unconnected-(U1-VIN-Pad30)*%
X125155000Y-89745000D03*
%TD*%
D12*
%TO.P,JP2,2,2*%
%TO.N,Net-(U2-O1)*%
X93980000Y-78740000D03*
%TO.P,JP2,3,3*%
%TO.N,Net-(U2-O2)*%
X93980000Y-76738480D03*
%TO.P,JP2,4,4*%
%TO.N,Net-(U2-O3)*%
X93980000Y-74742040D03*
%TO.P,JP2,5,5*%
%TO.N,Net-(U2-O4)*%
X93980000Y-72740520D03*
%TO.P,JP2,6,6*%
%TO.N,Net-(U2-O5)*%
X93980000Y-70741540D03*
%TD*%
D13*
%TO.P,U3,1,VCC*%
%TO.N,Net-(U1-3V3)*%
X95485000Y-87630000D03*
%TO.P,U3,2,TRIG*%
%TO.N,Net-(U1-D18)*%
X95485000Y-90170000D03*
%TO.P,U3,3,ECHO*%
%TO.N,Net-(U1-D5)*%
X95485000Y-92710000D03*
%TO.P,U3,4,GND*%
%TO.N,Net-(U2-GND)*%
X95485000Y-95250000D03*
%TD*%
D14*
%TO.P,U2,1,I1*%
%TO.N,Net-(U1-D27)*%
X107000000Y-76200000D03*
D15*
%TO.P,U2,2,I2*%
%TO.N,Net-(U1-D14)*%
X107000000Y-73660000D03*
%TO.P,U2,3,I3*%
%TO.N,Net-(U1-D12)*%
X107000000Y-71120000D03*
%TO.P,U2,4,I4*%
%TO.N,Net-(U1-D13)*%
X107000000Y-68580000D03*
%TO.P,U2,5,I5*%
%TO.N,unconnected-(U2-I5-Pad5)*%
X107000000Y-66040000D03*
%TO.P,U2,6,I6*%
%TO.N,unconnected-(U2-I6-Pad6)*%
X107000000Y-63500000D03*
%TO.P,U2,7,I7*%
%TO.N,unconnected-(U2-I7-Pad7)*%
X107000000Y-60960000D03*
%TO.P,U2,8,GND*%
%TO.N,Net-(U2-GND)*%
X107000000Y-58420000D03*
%TO.P,U2,9,COM*%
%TO.N,Net-(U1-3V3)*%
X99060000Y-58420000D03*
%TO.P,U2,10,O7*%
%TO.N,unconnected-(U2-O7-Pad10)*%
X99060000Y-60960000D03*
%TO.P,U2,11,O6*%
%TO.N,unconnected-(U2-O6-Pad11)*%
X99060000Y-63500000D03*
%TO.P,U2,12,O5*%
%TO.N,Net-(U2-O5)*%
X99060000Y-66040000D03*
%TO.P,U2,13,O4*%
%TO.N,Net-(U2-O4)*%
X99060000Y-68580000D03*
%TO.P,U2,14,O3*%
%TO.N,Net-(U2-O3)*%
X99060000Y-71120000D03*
%TO.P,U2,15,O2*%
%TO.N,Net-(U2-O2)*%
X99060000Y-73660000D03*
%TO.P,U2,16,O1*%
%TO.N,Net-(U2-O1)*%
X99060000Y-76200000D03*
%TD*%
M02*
